<svg width="126" height="17" viewBox="0 0 126 17" fill="none" xmlns="http://www.w3.org/2000/svg">
<path d="M8.57948 9.26812L9.05573 6.2862H6.07876V4.35111C6.07876 3.53547 6.49448 2.73991 7.82787 2.73991H9.18109V0.201335C9.18109 0.201335 7.95323 0 6.77894 0C4.32751 0 2.72518 1.4284 2.72518 4.01383V6.28671H0V9.26864H2.72518V16.4776H6.07876V9.26864L8.57948 9.26812Z" fill="#BBBBBB"/>
<path d="M47.8589 3.37829C47.3125 3.60486 46.7178 3.76792 46.1053 3.83143C46.7413 3.46829 47.2175 2.8946 47.4446 2.21799C46.8479 2.5592 46.1942 2.79846 45.5125 2.92516C45.2276 2.63238 44.883 2.39914 44.5002 2.23998C44.1174 2.08081 43.7046 1.99912 43.2875 2.00001C41.6 2.00001 40.2429 3.31478 40.2429 4.92822C40.2429 5.15479 40.2714 5.38135 40.3179 5.59934C37.7911 5.47232 35.5375 4.31202 34.0393 2.53553C33.7663 2.98371 33.6232 3.49402 33.625 4.01337C33.625 5.02949 34.1625 5.92546 34.9821 6.4524C34.4991 6.43411 34.0274 6.3065 33.6054 6.07994V6.11598C33.6054 7.53889 34.6518 8.71807 36.0464 8.98927C35.7846 9.05464 35.5152 9.08809 35.2446 9.08882C35.0464 9.08882 34.8589 9.06994 34.6696 9.04419C35.0554 10.2045 36.1786 11.0473 37.5161 11.0747C36.4696 11.8626 35.1589 12.326 33.7357 12.326C33.4804 12.326 33.2446 12.3174 33 12.2899C34.35 13.1224 35.9518 13.603 37.6768 13.603C43.2768 13.603 46.3411 9.14374 46.3411 5.27322C46.3411 5.1462 46.3411 5.01919 46.3321 4.89217C46.925 4.47508 47.4446 3.95844 47.8589 3.37829Z" fill="#BBBBBB"/>
<path d="M87.6661 4.6838C87.575 4.35775 87.3964 4.06041 87.1482 3.82154C86.9 3.58267 86.5909 3.41064 86.2518 3.32269C85.0036 3 80 3 80 3C80 3 74.9964 3 73.7482 3.32097C73.409 3.40864 73.0997 3.58057 72.8514 3.81948C72.6032 4.0584 72.4247 4.35589 72.3339 4.68209C72 5.88358 72 8.38954 72 8.38954C72 8.38954 72 10.8955 72.3339 12.0953C72.5179 12.7578 73.0607 13.2796 73.7482 13.4564C74.9964 13.7791 80 13.7791 80 13.7791C80 13.7791 85.0036 13.7791 86.2518 13.4564C86.9411 13.2796 87.4821 12.7578 87.6661 12.0953C88 10.8955 88 8.38954 88 8.38954C88 8.38954 88 5.88358 87.6661 4.6838ZM78.4107 10.6895V6.08955L82.5536 8.37238L78.4107 10.6895Z" fill="#BBBBBB"/>
<path d="M125.3 7.38784H118.848V9.93672H122.534C122.375 10.7606 121.893 11.4575 121.166 11.9243C120.552 12.3191 119.768 12.5525 118.846 12.5525C117.063 12.5525 115.554 11.394 115.014 9.83717C114.879 9.44239 114.8 9.02015 114.8 8.5859C114.8 8.15165 114.879 7.72941 115.014 7.33463C115.555 5.77955 117.064 4.62097 118.848 4.62097C119.854 4.62097 120.755 4.95396 121.466 5.6062L123.43 3.71642C122.243 2.65224 120.695 2 118.848 2C116.171 2 113.855 3.47612 112.729 5.62851C112.264 6.51761 112 7.52344 112 8.58762C112 9.65179 112.264 10.6559 112.729 11.545C113.855 13.6974 116.171 15.1735 118.848 15.1735C120.698 15.1735 122.248 14.5831 123.38 13.5772C124.675 12.4307 125.423 10.7417 125.423 8.73523C125.423 8.26836 125.38 7.82038 125.3 7.38784Z" fill="#BBBBBB"/>
</svg>
