<svg width="30" height="27" viewBox="0 0 30 27" fill="none" xmlns="http://www.w3.org/2000/svg">
<path d="M2.875 23.125V7.875C2.875 7.32272 3.32272 6.875 3.875 6.875H19.125C19.6773 6.875 20.125 7.32272 20.125 7.875V23.125C20.125 23.6773 19.6773 24.125 19.125 24.125H3.875C3.32272 24.125 2.875 23.6773 2.875 23.125Z" stroke="white" stroke-width="1.5"/>
<path d="M5.75 12.625H7.31818M7.31818 12.625H8.88636M7.31818 12.625C6.9697 15.0208 7.31818 19.8125 11.5 19.8125C15.6818 19.8125 16.0303 15.0208 15.6818 12.625M17.25 12.625H15.6818M15.6818 12.625H14.1136" stroke="white" stroke-width="1.5"/>
<circle cx="22" cy="8" r="8" fill="#7DB800"/>
<path d="M24.3242 8.00684C24.3242 9.02897 24.1322 9.80046 23.748 10.3213C23.3672 10.8389 22.7861 11.0977 22.0049 11.0977C21.2367 11.0977 20.6572 10.8454 20.2666 10.3408C19.8792 9.83301 19.6807 9.08268 19.6709 8.08984V6.85938C19.6709 5.83724 19.8613 5.07064 20.2422 4.55957C20.6263 4.0485 21.2106 3.79297 21.9951 3.79297C22.7731 3.79297 23.3525 4.04199 23.7334 4.54004C24.1175 5.03809 24.3145 5.78353 24.3242 6.77637V8.00684ZM23.1377 6.67871C23.1377 6.01139 23.0465 5.52311 22.8643 5.21387C22.682 4.90137 22.3923 4.74512 21.9951 4.74512C21.6077 4.74512 21.3229 4.89323 21.1406 5.18945C20.9583 5.48242 20.8623 5.94141 20.8525 6.56641V8.17773C20.8525 8.8418 20.9453 9.33659 21.1309 9.66211C21.3164 9.98763 21.6077 10.1504 22.0049 10.1504C22.3857 10.1504 22.6673 10.0007 22.8496 9.70117C23.0319 9.39844 23.1279 8.92643 23.1377 8.28516V6.67871Z" fill="white"/>
</svg>
