<svg width="15" height="13" viewBox="0 0 15 13" fill="none" xmlns="http://www.w3.org/2000/svg">
<path d="M14.8589 1.82592C14.3125 2.05249 13.7178 2.21555 13.1053 2.27906C13.7413 1.91593 14.2175 1.34224 14.4446 0.665624C13.8479 1.00683 13.1942 1.24609 12.5125 1.37279C12.2276 1.08001 11.883 0.846775 11.5002 0.687607C11.1174 0.528439 10.7046 0.446753 10.2875 0.447639C8.59999 0.447639 7.24285 1.76242 7.24285 3.37585C7.24285 3.60242 7.27142 3.82898 7.31785 4.04697C4.79107 3.91995 2.5375 2.75966 1.03929 0.983162C0.766295 1.43135 0.623238 1.94165 0.624999 2.461C0.624999 3.47712 1.1625 4.37309 1.98214 4.90003C1.49911 4.88174 1.0274 4.75413 0.605357 4.52757V4.56361C0.605357 5.98652 1.65178 7.1657 3.04643 7.4369C2.78457 7.50228 2.51519 7.53572 2.24464 7.53645C2.04643 7.53645 1.85893 7.51757 1.66964 7.49182C2.05536 8.65212 3.17857 9.49488 4.51607 9.52235C3.46964 10.3102 2.15893 10.7736 0.735714 10.7736C0.480357 10.7736 0.244643 10.765 0 10.7376C1.35 11.57 2.95178 12.0506 4.67678 12.0506C10.2768 12.0506 13.3411 7.59137 13.3411 3.72085C13.3411 3.59384 13.3411 3.46682 13.3321 3.3398C13.925 2.92271 14.4446 2.40607 14.8589 1.82592Z" fill="#BBBBBB"/>
</svg>
