<svg width="16" height="11" viewBox="0 0 16 11" fill="none" xmlns="http://www.w3.org/2000/svg">
<path d="M15.6661 1.70462C15.575 1.37856 15.3964 1.08122 15.1482 0.84235C14.9 0.603479 14.5909 0.431457 14.2518 0.343499C13.0036 0.0208131 8 0.020813 8 0.020813C8 0.020813 2.99643 0.0208129 1.74821 0.341782C1.40897 0.429455 1.09969 0.601382 0.851439 0.840297C0.603191 1.07921 0.424713 1.37671 0.333929 1.7029C-6.81196e-08 2.90439 0 5.41035 0 5.41035C0 5.41035 -6.81196e-08 7.91632 0.333929 9.11609C0.517857 9.77863 1.06071 10.3004 1.74821 10.4772C2.99643 10.7999 8 10.7999 8 10.7999C8 10.7999 13.0036 10.7999 14.2518 10.4772C14.9411 10.3004 15.4821 9.77863 15.6661 9.11609C16 7.91632 16 5.41035 16 5.41035C16 5.41035 16 2.90439 15.6661 1.70462ZM6.41071 7.71035V3.11036L10.5536 5.39319L6.41071 7.71035Z" fill="#BBBBBB"/>
</svg>
